<svg xmlns="http://www.w3.org/2000/svg" width="76" height="25" viewBox="0 0 76 25"><defs><style>.a{fill:#fff;}</style></defs><path class="a" d="M48.059,24.819a1.2,1.2,0,0,1-.444-.5,1.714,1.714,0,0,1-.158-.758,1.678,1.678,0,0,1,.162-.757,1.248,1.248,0,0,1,.462-.515,1.317,1.317,0,0,1,.708-.185,1.249,1.249,0,0,1,.772.231,1.071,1.071,0,0,1,.4.642H49.5a.611.611,0,0,0-.243-.352.781.781,0,0,0-.467-.129.832.832,0,0,0-.668.284,1.39,1.39,0,0,0,0,1.565.794.794,0,0,0,.636.281.756.756,0,0,0,.606-.237,1.092,1.092,0,0,0,.237-.628h-.734v-.328h1.147v1.521h-.374l-.034-.412a1,1,0,0,1-.34.339,1.039,1.039,0,0,1-.534.122A1.222,1.222,0,0,1,48.059,24.819Zm-39.706.062a.872.872,0,0,1-.371-.363,1.26,1.26,0,0,1-.138-.62V22.148h.41V23.9a.741.741,0,0,0,.171.539.692.692,0,0,0,.915,0,.744.744,0,0,0,.169-.539V22.148h.41V23.9a1.221,1.221,0,0,1-.14.62.9.9,0,0,1-.379.363A1.151,1.151,0,0,1,8.877,25,1.136,1.136,0,0,1,8.353,24.881Zm11.708-.067a1.277,1.277,0,0,1-.472-.509,1.77,1.77,0,0,1,0-1.51,1.269,1.269,0,0,1,.472-.511,1.437,1.437,0,0,1,1.406,0,1.238,1.238,0,0,1,.469.511,1.77,1.77,0,0,1,0,1.51,1.252,1.252,0,0,1-.469.509,1.431,1.431,0,0,1-1.406,0Zm.216-2.206a.86.86,0,0,0-.322.368,1.5,1.5,0,0,0,0,1.145.835.835,0,0,0,.322.369.926.926,0,0,0,.487.129.908.908,0,0,0,.485-.129.861.861,0,0,0,.322-.369,1.469,1.469,0,0,0,0-1.145.865.865,0,0,0-.322-.368.9.9,0,0,0-.485-.129A.917.917,0,0,0,20.277,22.609Zm-3.8,2.208a1.205,1.205,0,0,1-.45-.508,1.9,1.9,0,0,1,0-1.514,1.212,1.212,0,0,1,.45-.51,1.269,1.269,0,0,1,.693-.184,1.205,1.205,0,0,1,.777.239,1.067,1.067,0,0,1,.382.672h-.455a.668.668,0,0,0-.232-.388.729.729,0,0,0-.475-.144.786.786,0,0,0-.641.286,1.425,1.425,0,0,0,0,1.568.791.791,0,0,0,.641.284.753.753,0,0,0,.475-.136.627.627,0,0,0,.232-.373h.455a1.038,1.038,0,0,1-.382.653,1.215,1.215,0,0,1-.777.237A1.284,1.284,0,0,1,16.479,24.817Zm-11.847,0a1.271,1.271,0,0,1-.472-.509,1.77,1.77,0,0,1,0-1.51,1.262,1.262,0,0,1,.472-.511,1.333,1.333,0,0,1,.7-.184,1.333,1.333,0,0,1,.7.184,1.25,1.25,0,0,1,.469.511,1.778,1.778,0,0,1,0,1.51,1.252,1.252,0,0,1-.469.509,1.323,1.323,0,0,1-.7.184A1.321,1.321,0,0,1,4.632,24.815Zm.216-2.206a.842.842,0,0,0-.322.368,1.5,1.5,0,0,0,0,1.145.844.844,0,0,0,.322.369.982.982,0,0,0,.972,0,.867.867,0,0,0,.322-.369,1.469,1.469,0,0,0,0-1.145.871.871,0,0,0-.322-.368.9.9,0,0,0-.485-.129A.917.917,0,0,0,4.848,22.609Zm65.759,2.344H70.2v-2.8h.931a1.1,1.1,0,0,1,.527.112.724.724,0,0,1,.306.3.917.917,0,0,1-.032.9.747.747,0,0,1-.416.3l.575,1.188-.475,0-.525-1.13h-.483v1.13h0Zm0-1.451h.5a.47.47,0,0,0,.537-.5.5.5,0,0,0-.128-.359A.543.543,0,0,0,71.1,22.5h-.495ZM11.587,24.953h-.409v-2.8h.931a1.091,1.091,0,0,1,.527.112.726.726,0,0,1,.307.3.89.89,0,0,1,.1.423.879.879,0,0,1-.133.472.746.746,0,0,1-.416.3l.575,1.188-.474,0-.526-1.13h-.483v1.13h0Zm0-1.451h.5a.529.529,0,0,0,.408-.14.521.521,0,0,0,.13-.364.5.5,0,0,0-.128-.359.547.547,0,0,0-.413-.135h-.495Zm61.692,1.45v-2.8H75v.344h-1.31v.873h1.193V23.7H73.689v.905H75v.345Zm-6.022,0v-2.8h1.719v.344H67.667v.873h1.194V23.7H67.667v.905h1.309v.345Zm-1.69,0V23.7h-1.31v1.254h-.41v-2.8h.41v1.2h1.31v-1.2h.41v2.8Zm-6.366,0v-2.8h1.719v.344h-1.31v.873H60.8V23.7H59.611v.905h1.31v.345Zm-1.691,0-1.356-2.111v2.111h-.41v-2.8h.41l1.356,2.11v-2.11h.41v2.8Zm-3.458,0v-2.8h.41v2.8Zm-2.812,0v-2.8h.41v2.466H52.88v.337Zm-5.311-.684h-1.1l-.231.684h-.433l1-2.8h.448l.989,2.8-.433,0Zm-.988-.337h.873l-.437-1.277Zm-2.634,1.021V22.493h-.8v-.345h2.005v.345h-.8v2.459Zm-4.711,0V23.918l-.9-1.769h.464L37.8,23.5l.635-1.353h.458l-.887,1.769v1.034Zm-2.381,0-1.356-2.111v2.111h-.409v-2.8h.409l1.356,2.11v-2.11h.41v2.8Zm-3.541-.684H30.57l-.23.684h-.433l1-2.8h.449l.989,2.8-.433,0Zm-.988-.337h.872l-.437-1.277Zm-2.91,1.021h-.409v-2.8h.947a1.125,1.125,0,0,1,.526.109.729.729,0,0,1,.311.3.944.944,0,0,1,0,.849.71.71,0,0,1-.307.3,1.134,1.134,0,0,1-.533.112h-.537v1.129h0Zm0-1.478H28.3a.563.563,0,0,0,.415-.13.573.573,0,0,0,0-.717.556.556,0,0,0-.415-.13h-.517Zm-2.1,1.478v-2.07l-.826,1.669h-.317L23.7,22.885v2.066h-.41v-2.8h.484l.915,1.866.912-1.866h.482v2.8Zm-23.779,0V23.918L1,22.149h.464L2.1,23.5l.634-1.353H3.2l-.887,1.769v1.034Zm.851-6.226a3.494,3.494,0,0,1-1.363-.733,4.02,4.02,0,0,1-1-1.346A4.914,4.914,0,0,1,0,14.541V4.289a4.691,4.691,0,0,1,.3-1.7,4.024,4.024,0,0,1,.858-1.36,3.983,3.983,0,0,1,1.324-.9A4.3,4.3,0,0,1,4.187,0,3.831,3.831,0,0,1,7.139,1.229a4.4,4.4,0,0,1,.869,1.426,4.963,4.963,0,0,1,.316,1.792V5.493H5.751V4.6a2.212,2.212,0,0,0-.429-1.36,1.372,1.372,0,0,0-1.16-.575,1.294,1.294,0,0,0-1.273.615,3.391,3.391,0,0,0-.316,1.556v9.519a2.524,2.524,0,0,0,.341,1.36,1.322,1.322,0,0,0,1.223.549,1.768,1.768,0,0,0,.542-.092,1.59,1.59,0,0,0,.544-.3A1.6,1.6,0,0,0,5.6,15.3a2.4,2.4,0,0,0,.151-.915v-.915H8.324V14.62a4.27,4.27,0,0,1-.316,1.634,4.532,4.532,0,0,1-.869,1.373,4.216,4.216,0,0,1-1.3.955,3.684,3.684,0,0,1-1.6.354A5.563,5.563,0,0,1,2.75,18.725Zm10.53-.078a4.027,4.027,0,0,1-1.374-.863A3.98,3.98,0,0,1,10.9,16.4a4.87,4.87,0,0,1-.379-2.014V4.55A4.913,4.913,0,0,1,10.9,2.563a4.194,4.194,0,0,1,1.009-1.438A4.233,4.233,0,0,1,13.28.288a4.324,4.324,0,0,1,3.1,0,4.541,4.541,0,0,1,1.4.837,4.4,4.4,0,0,1,.984,1.438,4.929,4.929,0,0,1,.378,1.987v9.833a4.885,4.885,0,0,1-.378,2.014,4.163,4.163,0,0,1-.984,1.386,4.307,4.307,0,0,1-1.4.863,4.336,4.336,0,0,1-3.1,0Zm56.616.131V10.905L66.365.157h2.723l2.069,7.4h.05l2.068-7.4H76L72.468,10.905v7.872Zm-7.39,0L58.571,7.584H58.52V18.778H55.948V.157H58.42L62.3,11.377h.05V.157h2.573V18.778Zm-10.543,0-.757-4H47.7l-.758,4H44.369L48.38.157h2.144l4.01,18.621Zm-16.018,0V.157H39.8A5.552,5.552,0,0,1,41.67.445a3.589,3.589,0,0,1,1.463,1.02,4.029,4.029,0,0,1,.907,1.714,11.038,11.038,0,0,1,.252,2.654,13.744,13.744,0,0,1-.138,2.119,4.521,4.521,0,0,1-.593,1.622A3.814,3.814,0,0,1,42.15,11a4.626,4.626,0,0,1-2.321.509H38.517v7.27Zm-5.247,0V7.454h-.05l-2.547,8H26.814l-2.524-8h-.05V18.778H21.667V.157h2.471l3.306,9.86h.049L30.774.157h2.5V18.778Z"/></svg>