<svg xmlns="http://www.w3.org/2000/svg" width="484.45" height="409.549" viewBox="0 0 484.45 409.549"><defs><style>.a{fill:#d1e9ff;}.b{fill:#fff;}.c{fill:#9fa3bf;}.d{fill:#5f6386;}.e{fill:#feffff;}.f{fill:#c5cbd1;opacity:0.248;}.g{fill:#3a86ff;}.h{fill:#251138;}.i{fill:#fb855f;}.j{fill:#283646;}.k{fill:#fd8b66;}.l{fill:#e56542;}.m{fill:#8e3332;}.n{fill:#589aff;}</style></defs><g transform="translate(-0.186 -0.225)"><g transform="translate(82.122)"><path class="a" d="M292.621,146.306a146.762,146.762,0,0,1-2.865,28.938c-.29,1.468-.606,2.917-.94,4.367a145.756,145.756,0,0,1-26.407,55.74c-1.055,1.38-2.144,2.742-3.251,4.086A146.313,146.313,0,0,1,42.306,249.2c-1.2-1.2-2.355-2.417-3.5-3.656A145.976,145.976,0,0,1,5.079,184.665q-.606-2.214-1.134-4.473a147.693,147.693,0,0,1-1.67-59.738c.263-1.46.545-2.9.843-4.341A145.74,145.74,0,0,1,35.16,51.163q2.5-2.926,5.167-5.712A146.314,146.314,0,0,1,241.133,34.879q2.452,2.083,4.8,4.262a146.268,146.268,0,0,1,42.3,71.488c.44,1.722.835,3.462,1.213,5.22A147.312,147.312,0,0,1,292.621,146.306Z" transform="translate(0.213 0.225)"/><path class="b" d="M210.77,4.385h-.888c-10.475,0-21.82,3.146-33.822,6.477-13.463,3.726-27.382,7.584-41.838,7.584-12.751,0-25.8-3.612-38.411-7.1C83.474,7.927,70.723,4.394,58.57,4.394c-13.858,0-27.479,3.779-40.652,7.426C11.784,13.524,5.808,15.176,0,16.407q2.5-2.926,5.167-5.712c3.779-.949,7.645-2.021,11.573-3.111C30.2,3.858,44.114,0,58.57,0c12.751,0,25.8,3.612,38.411,7.109,12.338,3.41,25.089,6.942,37.242,6.942,13.858,0,27.488-3.779,40.66-7.426,10.862-3.014,21.2-5.879,31.091-6.5Q208.424,2.206,210.77,4.385Z" transform="translate(35.375 34.981)"/><path class="b" d="M287.17,13.252c-1.309-.509-2.592-1.037-3.884-1.564-8.761-3.585-17.821-7.294-40.511-7.294h-.009c-10.475,0-21.82,3.146-33.822,6.477-13.463,3.735-27.382,7.593-41.838,7.593-12.751,0-25.8-3.612-38.411-7.109C116.357,7.935,103.606,4.4,91.453,4.4,77.595,4.4,63.974,8.181,50.8,11.837c-12.3,3.41-23.929,6.626-35,6.626q-7.87,0-15.8-.606c.263-1.46.545-2.9.843-4.341,4.991.369,9.992.554,14.957.554,10.475,0,21.82-3.137,33.823-6.468C63.086,3.867,77,.009,91.453.009c12.751,0,25.8,3.612,38.411,7.109,12.338,3.418,25.089,6.951,37.242,6.951,13.858,0,27.488-3.779,40.66-7.434C220.069,3.225,231.7,0,242.767,0h.009c23.551,0,33.024,3.876,42.181,7.619.335.141.669.272,1,.413C286.4,9.754,286.792,11.494,287.17,13.252Z" transform="translate(2.492 102.821)"/><path class="b" d="M285.808,8.629c-.29,1.468-.606,2.917-.94,4.367-1.09-.439-2.17-.879-3.251-1.318-8.761-3.585-17.821-7.285-40.511-7.285H241.1c-10.475,0-21.82,3.146-33.822,6.468-13.463,3.735-27.382,7.592-41.838,7.592-12.751,0-25.8-3.612-38.411-7.109-12.338-3.418-25.089-6.951-37.242-6.951C75.925,4.4,62.3,8.173,49.132,11.828c-12.3,3.41-23.929,6.635-35,6.635-4.315,0-8.656-.141-13-.413Q.527,15.836,0,13.577c4.719.325,9.438.492,14.131.492a79.525,79.525,0,0,0,16.336-1.986c5.651-1.2,11.485-2.829,17.489-4.491C61.418,3.867,75.33.009,89.785,0c12.751,0,25.8,3.619,38.411,7.109,12.338,3.418,25.089,6.951,37.242,6.951,13.858,0,27.488-3.779,40.66-7.434C218.4,3.216,230.027,0,241.1,0h.009c23.551,0,33.024,3.867,42.181,7.61C284.13,7.953,284.965,8.3,285.808,8.629Z" transform="translate(4.161 166.84)"/><path class="b" d="M223.6.891c-1.055,1.38-2.144,2.742-3.251,4.086-4.042-.369-8.682-.58-14.1-.58h-.009c-10.475,0-21.82,3.146-33.822,6.476-13.463,3.726-27.382,7.584-41.838,7.593-12.751,0-25.8-3.619-38.411-7.109C79.827,7.939,67.076,4.406,54.923,4.406c-13.858,0-27.479,3.779-40.652,7.426C10.625,12.842,7.031,13.844,3.5,14.74c-1.2-1.2-2.355-2.417-3.5-3.656C4.271,10.048,8.638,8.834,13.094,7.6,26.556,3.87,40.467.012,54.923.012c12.751,0,25.8,3.612,38.411,7.109,12.338,3.418,25.089,6.951,37.242,6.951,13.858-.009,27.488-3.779,40.66-7.434,12.3-3.41,23.929-6.635,35-6.635h.009A149.976,149.976,0,0,1,223.6.891Z" transform="translate(39.022 234.686)"/></g><path class="a" d="M460.081,99.988H0s9.325-34.56,56.994-35.551a31.57,31.57,0,0,0,14.647-3.475,25.047,25.047,0,0,0,6.6-5.186C95.721,36.591,84.986-6.921,120.2,3.222,164.76,16.058,209.318,29.877,259.051,5.2c20.414-10.134,41.338-4.3,60.787,7.669,20.914,12.864,40.109,32.823,55.111,47.669.1.1.209.2.318.309,2.256,2.238,4.43,4.358,6.486,6.3.309.3.608.582.91.864,1.319,1.237,2.593,2.411,3.812,3.494.719.637,1.419,1.247,2.1,1.819,1.929,1.628,3.948,3.157,6.04,4.594.145.1.282.2.419.291l.437.3a103.408,103.408,0,0,0,14.792,8.169C434.418,97.7,460.081,99.988,460.081,99.988Z" transform="translate(24.555 308.456)"/><g transform="translate(94.896 339.74)"><path class="c" d="M21.973,51.948a19.621,19.621,0,0,1,.146,4.621c-.109,2.256-.218,4.522-.318,6.777,0,.018,0,.027-.009.036-.082,1.683-.155,3.357-.236,5.04H8.682a9.146,9.146,0,0,0-.655-2.629c-.71-1.7-2.038-3.32-1.764-5.14.182-1.264,1.119-2.292,1.547-3.493.719-2.01-.082-4.267-1.292-6.022S3.69,47.945,2.47,46.19A13.774,13.774,0,0,1,.232,40.84,13.6,13.6,0,0,1,0,37.993a4.818,4.818,0,0,1,.9-3.02c1.1-1.31,3.467-1.92,3.33-3.639-.091-1.137-1.3-1.774-2.129-2.566-2.265-2.2-1.6-5.922-.764-8.97Q3.2,12.989,5.062,6.162C5.761,3.577,6.945.54,9.574.058c1.9-.346,3.775.91,4.894,2.483a38.659,38.659,0,0,1,2.6,5.167c1.283,2.5,3.194,4.667,4.267,7.269s1.1,5.977-1.028,7.824c-.291.255-.646.582-.528.946.091.264.391.373.637.5,1.474.737,1.865,2.638,2.01,4.285.073.873.136,1.746.164,2.62a61.589,61.589,0,0,1-.873,13.626,14.782,14.782,0,0,0-.382,4.23C21.445,50.01,21.782,50.965,21.973,51.948Z" transform="translate(29.142 0.281)"/><path class="b" d="M2.056,51.854c-.018.573-.027,1.146-.046,1.729H1.392c.018-.864.046-1.719.064-2.566A470.112,470.112,0,0,0,0,.064L.619,0A473.376,473.376,0,0,1,2.056,51.854Z" transform="translate(40.244 15.121)"/><path class="d" d="M36.943.612c-.173,2.047-.773,8.243-2.256,16.266a.554.554,0,0,1-.828.382.565.565,0,0,0-.828.637l.873,3v.009c-.855,4.112-1.919,8.551-3.266,13.082a.557.557,0,0,1-.537.4H26.764a.564.564,0,0,0-.419.937l2.875,3.166V38.5a94.519,94.519,0,0,1-7.96,17.985.573.573,0,0,1-.382.264l-5.586,1.01a.561.561,0,0,0-.236,1l.3.228H.328A47.35,47.35,0,0,1,0,54.022a.615.615,0,0,1,.118-.355L1.492,51.92a.556.556,0,0,0-.3-.882l-.71-.182a.559.559,0,0,1-.419-.564A83.721,83.721,0,0,1,1.8,37.137a.547.547,0,0,1,.346-.409l2.483-.973a.554.554,0,0,0,.118-.973L2.985,33.526a.566.566,0,0,1-.227-.592A49.121,49.121,0,0,1,7.133,21.718a44.274,44.274,0,0,1,3.011-4.758.544.544,0,0,1,.608-.2l2.065.608a.563.563,0,0,0,.664-.782l-1-2.029a.57.57,0,0,1,.073-.619A44.686,44.686,0,0,1,36.279.011a.558.558,0,0,1,.664.6Z" transform="translate(44.602 9.715)"/><path class="d" d="M43.014,47.246H25.921c-.054-.118-.118-.237-.173-.355-1-2.056-2.029-4.4-1.228-6.55.391-1.065,1.237-2.074,1.046-3.2-1.892-.564-3.748,1-5.713,1.183-2.438.218-4.5-1.692-6.2-3.457-2.01-2.093-4.194-4.813-3.33-7.587.137-.428.328-.91.1-1.292a1.369,1.369,0,0,0-1.046-.473c-.964-.118-1.928-.246-2.884-.365a2.606,2.606,0,0,1-1.41-.464,2.668,2.668,0,0,1-.682-1.5q-1.6-7.478-3.2-14.964C.867,6.681.539,5.153.212,3.616A4.221,4.221,0,0,1,.239.914C.63.086,1.886-.351,2.486.35,4.242,1.278,6.007,2.178,7.8,3.033Q14.936,6.5,22.381,9.274a9.164,9.164,0,0,1,2.984,1.555c2.211,2,1.865,5.595,3.411,8.142a5.3,5.3,0,0,0,.491.692c2.147,2.665,6.159,3.711,7.742,6.786.928,1.829.8,3.994.546,6.031-.373,3.02-.882,6.359.846,8.87.855,1.247,2.165,2.111,3.139,3.266.018.018.036.045.055.064a7.793,7.793,0,0,1,.6.837,8.849,8.849,0,0,1,.819,1.729Z" transform="translate(0.105 21.458)"/><path class="b" d="M22.161.473C6.759,14.019,1.9,32.622.619,46.45H0q.219-2.429.6-5.04c.009-.009.009-.018.009-.036C2.575,28.174,8,12.09,21.751,0Z" transform="translate(50.333 22.253)"/><path class="b" d="M27.774,37.38H27.11C14.609,6.5.173.646,0,.582L.218,0C.437.082,5.686,2.129,12.645,10.562,16.957,15.783,22.488,24.235,27.774,37.38Z" transform="translate(8.914 31.323)"/></g><g transform="translate(344.303 286.513)"><path class="c" d="M32.621,77.119a28.888,28.888,0,0,1,.218,6.868c-.164,3.376-.318,6.741-.482,10.116v.009q-.136,2.893-.282,5.795-.191,4.148-.391,8.3a3.825,3.825,0,0,1-.637,2.356.842.842,0,0,1-.127.127c-1.228,1.2-3.984,1.146-3.884,2.847.045.891.973,1.419,1.628,2.02a5,5,0,0,1,1.228,4.794,6.415,6.415,0,0,1-.446,1.338H12.525c-.1-.337-.191-.682-.264-1.028a23.851,23.851,0,0,1-.227-7.414c.191-1.719.464-3.467.673-5.2.082-.7.155-1.392.209-2.083a17.575,17.575,0,0,0-1-8.278c-1.055-2.52-3.029-4.922-2.62-7.632.282-1.874,1.665-3.393,2.3-5.186a7.212,7.212,0,0,0,.391-2.629,12.062,12.062,0,0,0-2.312-6.3c-1.81-2.6-4.2-4.749-6.013-7.351A20.378,20.378,0,0,1,.006,56.406,7.132,7.132,0,0,1,1.335,51.93c1.646-1.956,5.149-2.866,4.949-5.4-.127-1.692-1.938-2.638-3.157-3.821C-.239,39.448.753,33.917,1.98,29.4Q4.751,19.271,7.512,9.146C8.558,5.316,10.3.794,14.216.085c2.82-.509,5.595,1.346,7.269,3.685s2.547,5.122,3.857,7.669c1.91,3.711,4.74,6.932,6.341,10.789s1.628,8.888-1.528,11.626c-.428.373-.964.864-.782,1.4.136.391.573.555.946.737,2.193,1.1,2.757,3.921,2.975,6.368.118,1.3.2,2.593.255,3.893a92.474,92.474,0,0,1-1.3,20.232,21.933,21.933,0,0,0-.573,6.286C31.848,74.244,32.348,75.663,32.621,77.119Z" transform="translate(43.214 0.245)"/><path class="b" d="M3.211,67.683Q3.157,72.241,3.047,77c-.155,6.57-.4,13.418-.755,20.487-.036.719-.073,1.447-.109,2.174H1.264q.041-.737.082-1.474c0-.055.009-.109.009-.155.391-7.714.646-15.165.8-22.279q.1-4.571.146-8.933C2.693,27.6.036.464,0,.091L.909,0C.946.382,3.648,27.947,3.211,67.683Z" transform="translate(59.705 22.271)"/><path class="d" d="M54.847.9C54.593,3.937,53.7,13.134,51.5,25.052a.83.83,0,0,1-1.237.564.831.831,0,0,0-1.219.946l1.292,4.467c-1.265,6.1-2.857,12.7-4.849,19.423a.827.827,0,0,1-.791.6H39.738a.827.827,0,0,0-.619,1.383l4.267,4.712c-1.538,4.621-3.285,9.234-5.249,13.728a121.34,121.34,0,0,1-6.577,12.982.825.825,0,0,1-.573.4l-8.288,1.5a.828.828,0,0,0-.355,1.474L26.4,90.324a.843.843,0,0,1,.164,1.156c-.719.982-1.465,1.947-2.22,2.884A56.6,56.6,0,0,1,9.416,107.673H8.088a.077.077,0,0,1,0,.064.349.349,0,0,0-.054-.064,14.89,14.89,0,0,1-1.1-1.338C4.513,103.1.237,95.281,0,80.2a.8.8,0,0,1,.173-.527l.382-.482,1.656-2.111a.837.837,0,0,0-.456-1.319L.709,75.495a.821.821,0,0,1-.619-.837A124.223,124.223,0,0,1,2.665,55.126a.856.856,0,0,1,.517-.608l3.684-1.437a.827.827,0,0,0,.182-1.447L4.419,49.769a.821.821,0,0,1-.327-.882,72.165,72.165,0,0,1,6.5-16.648,65.2,65.2,0,0,1,4.467-7.069.825.825,0,0,1,.91-.3l3.056.91A.832.832,0,0,0,20,24.616L18.52,21.6a.85.85,0,0,1,.118-.919A66.212,66.212,0,0,1,53.863.017.821.821,0,0,1,54.847.9Z" transform="translate(66.173 14.258)"/><path class="d" d="M58.55,90.016c-4.287-1.024-8.8-2.173-11.935-5.273a24.305,24.305,0,0,1-4.353-6.853l-4.03-8.264c-1.49-3.053-3.008-6.543-1.827-9.728.589-1.589,1.84-3.085,1.551-4.755-2.8-.846-5.557,1.483-8.473,1.747-3.628.328-6.685-2.507-9.211-5.131C17.28,48.65,14.043,44.616,15.327,40.5c.2-.631.489-1.344.149-1.91a2.007,2.007,0,0,0-1.561-.707l-4.282-.544a3.856,3.856,0,0,1-2.087-.693,3.867,3.867,0,0,1-1.009-2.219L.318,5.369A6.261,6.261,0,0,1,.353,1.359C.946.131,2.809-.521,3.7.515A250.593,250.593,0,0,0,33.231,13.771a13.313,13.313,0,0,1,4.437,2.312c3.275,2.968,2.761,8.31,5.063,12.083,2.9,4.748,9.683,6.155,12.219,11.107,1.388,2.709,1.191,5.931.818,8.953-.553,4.483-1.313,9.448,1.247,13.17,1.273,1.852,3.221,3.128,4.667,4.849,2.424,2.885,3.258,6.843,3.059,10.6a45.193,45.193,0,0,1-2.459,11Z" transform="translate(0.097 31.685)"/><path class="b" d="M33.5.693C11.134,20.352,3.748,47.207,1.646,67.584a138.423,138.423,0,0,0-.537,21.478H.181c-.155-3.02-.246-6.75-.127-11,.091-3.393.318-7.114.737-11.071.191-1.792.419-3.619.7-5.505v-.009C4.4,41.865,12.462,17.967,32.885,0Z" transform="translate(74.079 32.868)"/><path class="b" d="M48.333,75.607H47.36c-.118-.382-.228-.755-.346-1.128q-2.088-6.645-4.276-12.518C23.671,10.462.264.964,0,.864L.328,0c.318.127,8.105,3.166,18.44,15.693,6.868,8.315,15.829,22.142,24.18,44.185,1.656,4.376,3.293,9.079,4.876,14.128a.726.726,0,0,1,.045.127Z" transform="translate(13.182 46.324)"/></g><g transform="translate(13.337 54.052)"><rect class="e" width="157.841" height="208.111" rx="35.892" transform="translate(0.663 0.948)"/><rect class="f" width="119.053" height="36.644" rx="18.322" transform="translate(21.679 38.104)"/><rect class="f" width="119.053" height="36.644" rx="18.322" transform="translate(19.895 101.007)"/><rect class="g" width="120" height="29.751" rx="14.875" transform="translate(19.379 156.475)"/></g><circle class="g" cx="19.776" cy="19.776" r="19.776" transform="translate(0.186 39.156)"/><path class="b" d="M.6,13.746a.6.6,0,0,1-.424-1.025L12.738.176a.6.6,0,1,1,.848.849L1.024,13.571a.6.6,0,0,1-.424.175Z" transform="translate(13.29 52.463)"/><path class="b" d="M13.147,13.762a.6.6,0,0,1-.426-.176L.175,1.024a.6.6,0,0,1,.85-.848L13.571,12.738a.6.6,0,0,1-.426,1.024Z" transform="translate(13.296 52.454)"/><g transform="translate(147.211 22.812)"><path class="h" d="M12.9,10.437.358,38.976A4.236,4.236,0,0,0,1.806,44.15h0a4.236,4.236,0,0,0,5.9-1.039l24.935-35.6L20.395,0Z" transform="translate(195.474 317.776)"/><path class="i" d="M0,0H12.85V11.614a5.194,5.194,0,0,1-5.194,5.194H5.194A5.194,5.194,0,0,1,0,11.614Z" transform="matrix(0.574, -0.819, 0.819, 0.574, 199.769, 322.749)"/><path class="h" d="M33.974,0,3.407,6.1A4.236,4.236,0,0,0,0,10.259H0a4.236,4.236,0,0,0,4.236,4.236H47.7L46.826.154Z" transform="translate(39.569 372.467)"/><path class="i" d="M0,0H12.85V11.614a5.194,5.194,0,0,1-5.194,5.194H5.194A5.194,5.194,0,0,1,0,11.614Z" transform="translate(73.08 362.291)"/><path class="g" d="M17.828,1.605s6.762,24.376,8.5,45.237a79.5,79.5,0,0,1-.082,16.975c-1.067,7.537-3.951,12.535-9.836,12.236a7.866,7.866,0,0,1-2.608-.578s-.007-.01-.012-.006a8.977,8.977,0,0,1-2-1.149.3.3,0,0,1-.046-.035,14.164,14.164,0,0,1-3.208-3.619C6.343,67.284,4.7,62.536,3.473,57.114-1.388,35.632.274,3.567.274,3.567,7.8-3.084,17.828,1.605,17.828,1.605Z" transform="translate(8.516 24.687)"/><path class="g" d="M72.827,21.507S46.149,40.694,24.878,46.721c-7.1,2.017-13.6,2.566-18.306.447,0,0-.007-.01-.012-.006a12.017,12.017,0,0,1-2-1.149.3.3,0,0,1-.046-.035A11.229,11.229,0,0,1,1.3,42.358,12.342,12.342,0,0,1,.623,41c-1.764-4.088.35-8.407,4.687-12.639A70.048,70.048,0,0,1,19.1,18.536C37.259,8.159,61.828.082,61.828.082,72.281-1.228,81.565,13.455,72.827,21.507Z" transform="translate(15.748 52.992)"/><path class="g" d="M9.209,39.022a.077.077,0,0,0-.037,0c-.594-.08-1.165-.175-1.708-.3a10.146,10.146,0,0,1-5.188-2.7A8.086,8.086,0,0,1,1.07,34.382C-1.2,30.338.3,26.495,4.1,22.946c3.43-3.209,8.739-6.173,14.854-8.837C38.807,5.459,67.116,0,67.116,0s8.656,6.889,6.048,16.595c0,0-29.616,16.679-51.213,21.372A39.551,39.551,0,0,1,9.209,39.022Z" transform="translate(131.691 97.521)"/><path class="g" d="M30.764,77.781a.077.077,0,0,0-.037,0,11.436,11.436,0,0,1-1.708-.3,13.93,13.93,0,0,1-5.188-2.7C20.7,72.281,17.9,68.431,15.413,63.835,4.93,44.471.015,11.859.015,11.859-.577-.01,15.968-3.856,22.509,4.407c0,0,13.48,27.228,18,48.462,1.531,7.18,2.038,13.676.65,18.2a8.484,8.484,0,0,1-4.86,5.806,11.722,11.722,0,0,1-5.539.9Z" transform="translate(110.136 58.762)"/><path class="j" d="M20.319,127.267h0A17.748,17.748,0,0,1,2.59,110.514C.389,70.7-.579,29.914.354,0H39.212c-1.228,34.075-1.53,73.727-1.137,109.311a17.756,17.756,0,0,1-17.756,17.956Z" transform="translate(52.834 144.714)"/><path class="j" d="M17.692,0h0A17.689,17.689,0,0,0,.031,18.742c2.052,34.315,4.977,84.467,6.5,106.469H36.6c-1.194-25.067-.832-76.459-1.217-107.743A17.688,17.688,0,0,0,17.692,0Z" transform="translate(55.446 237.748)"/><path class="j" d="M47.027,128.34h0a17.748,17.748,0,0,1-20.934-12.519C15.33,77.425,5.562,37.815,0,8.407L37.938,0C44.112,33.534,52.4,72.311,60.478,106.968A17.756,17.756,0,0,1,47.027,128.34Z" transform="translate(89.007 131.299)"/><path class="j" d="M5.78,4.613h0a17.689,17.689,0,0,0-.436,25.748C29.968,54.349,65.9,89.457,81.843,104.7l22.23-20.248C86.31,66.721,51.971,28.483,30.62,5.615a17.688,17.688,0,0,0-24.84-1Z" transform="translate(115.879 227.646)"/><path class="g" d="M0,93.956S.994,15.088,22.742,3.862C35.209-2.574,61.012-.827,74.17,8.066c13.28,8.974,3.9,85.89,3.9,85.89Z" transform="translate(53.188 50.758)"/><path class="k" d="M1.835,14.062s1.88-4.008,4.976-5.877,5.414-2.741,7.466-6.447,5.764-.8,3.838,2.331-5.7,7.655-1.144,8.737,14.082-6.174,15.035,1.226c0,0,5.057-2.173,5.768.164s-3.859,4.336-3.859,4.336,5.49,3.653-7.033,6.639c0,0,1.41,2.791-.938,3.689-3.755,1.435-12.744.957-19.5-1.447C-4.528,23.5,1.835,14.062,1.835,14.062Z" transform="translate(194.038 86.113)"/><path class="l" d="M.061,3.764,0,3.167C11.359,1.987,14.05.02,14.076,0l.369.474C14.336.558,11.672,2.558.061,3.764Z" transform="translate(211.785 99.908)"/><path class="l" d="M.01,3.523,0,2.923C6.095,2.821,14.761.028,14.848,0l.185.571C14.946.6,6.192,3.419.01,3.523Z" transform="translate(213.012 104.361)"/><path class="l" d="M0,.859l0-.6C3.693.232,8.395,0,8.442,0l.03.6C8.424.6,3.71.832,0,.859Z" transform="translate(212.462 110.984)"/><path class="k" d="M25.25,27.756a16.168,16.168,0,0,0,.96-7.521c-.618-3.56-1.437-5.894-.17-9.8s-2.969-4.951-3.924-1.5-1.729,9.192-5.24,6.357S12.489.556,6.879,4.456c0,0-1.605-5.263-3.627-4.349S2.658,5.8,2.658,5.8s-5.829-1.948-.225,9.586c0,0-2.756.66-1.935,3.035,1.314,3.8,7.119,10.436,12.869,14.14C22.712,38.582,25.25,27.756,25.25,27.756Z" transform="translate(0.224 0.139)"/><path class="l" d="M6.527,13.185C.273,3.475.008.174,0,.038L.6,0C.6.033.9,3.344,7.032,12.86Z" transform="translate(6.803 4.574)"/><path class="l" d="M7.148,13.66C3.45,8.825.033.307,0,.222L.557,0C.591.085,3.978,8.527,7.625,13.295Z" transform="translate(2.604 5.829)"/><path class="l" d="M4.985,7.046C2.744,4.17.027.388,0,.35L.487,0c.027.038,2.737,3.81,4.97,6.677Z" transform="translate(2.413 15.352)"/><path class="i" d="M10.391,31.966c-8.226,0-11.976-9.609-9.766-11.819a7.792,7.792,0,0,0,1.551-2.4h.006A16.192,16.192,0,0,0,3.3,13.571l.006-.006L18.513,0c-.821,8.638,2.875,14.7,4.216,19.018S19.746,31.966,10.391,31.966Z" transform="translate(88.697 32.561)"/><path class="l" d="M13.661,2.813C9.3,11.154.254,10.326,0,10.344A16.192,16.192,0,0,0,1.117,6.171l.006-.006C1.534,5.929,17.749-5.005,13.661,2.813Z" transform="translate(90.88 39.96)"/><path class="m" d="M17.058,1.65s-.654,7.883-12.116,16C-7.076,26.169,6.6,0,6.6,0Z" transform="translate(105.194 15.392)"/><path class="i" d="M5.5,0S3.882,6.793,1.778,14.417c-3.007,10.9-3.264,19.712,7.839,19.712,18.647,0,17.406-30.943,17.406-30.943Z" transform="translate(85.46 12.306)"/><path class="e" d="M.006,14.952C-.006,14.455-.237,2.762,3.665,0l.693.98C1.55,2.967,1.131,11.719,1.206,14.923Z" transform="translate(55.556 90.707)"/><rect class="e" width="1.2" height="11.07" transform="translate(34.272 71.827) rotate(-1.871)"/><rect class="e" width="9.803" height="1.2" transform="matrix(0.263, -0.965, 0.965, 0.263, 147.49, 120.931)"/><path class="j" d="M0,37.381l33.567-1.526L22.887,2.288,6.866,0,0,37.381Z" transform="translate(72.826 146.944)"/><path class="h" d="M9.776,23.177,0,22.362,2.746,0,3.937.147,1.343,21.269l8.533.711-.1,1.2Z" transform="translate(83.598 144.963)"/><circle class="i" cx="6.246" cy="6.246" r="6.246" transform="translate(103.723 27.743)"/><path class="h" d="M.8,34.533l-.8-.9,4.084-3.617L5.58,0l1.2.06L5.258,30.582.8,34.533Z" transform="translate(52.593 144.647)"/><path class="h" d="M14.386,34.027,7.708,31.89,0,.284,1.166,0,8.716,30.951l6.037,1.932-.366,1.144Z" transform="translate(121.577 144.767)"/><path class="h" d="M.976,10.8,0,1.144,29.752,0l1.293,10.8Z" transform="translate(61.002 352.16)"/><path class="h" d="M0,20.217,8.362,28.34,30.592,8.093,22.124,0,0,20.217Z" transform="translate(189.36 304.003)"/><path class="e" d="M14.969,19.6c-.856,0-1.756-.045-2.7-.138C-1.129,18.145.017.181.029,0l1.2.086A28.492,28.492,0,0,0,2.2,8.838c1.658,5.754,5.085,8.926,10.186,9.425C25.15,19.518,28.737,11.713,32.1,1.383l1.141.371C30.066,11.506,26.44,19.6,14.969,19.6Z" transform="translate(84.15 50.268)"/><path class="m" d="M21.278,16.92s-1.526-5.34-6.866-4.069-7.883,3.814-10.68,2.543S0,8.985,0,8.985,1.977-3.573,18,1s12.689,14.39,12.689,14.39l-5.594,2.543Z" transform="translate(90.964 3.321)"/><circle class="m" cx="1.303" cy="1.303" r="1.303" transform="translate(99.845 25.836)"/><circle class="m" cx="1.303" cy="1.303" r="1.303" transform="translate(91.72 24.042)"/><path class="m" d="M2.788,8.82a2.835,2.835,0,0,1-2.6-1.431C-.22,6.548-.064,5.244,1.709,4.332A4.157,4.157,0,0,0,3.963.171L5.152,0A5.362,5.362,0,0,1,2.258,5.4c-.852.438-1.223.986-.992,1.467a2.066,2.066,0,0,0,2.693.485l.494,1.095a4.051,4.051,0,0,1-1.666.373Z" transform="translate(92.147 26.83)"/><path class="b" d="M.03,0,6.324.954s-1.049,4.1-3.91,3.624S.03,0,.03,0Z" transform="translate(90.438 38.328)"/><path class="m" d="M3.107,3.515A3.875,3.875,0,0,0,0,1.2L.061,0A5.053,5.053,0,0,1,4.2,3.023Z" transform="translate(101.244 22.983)"/><path class="m" d="M4.432,2A5.811,5.811,0,0,0,.276,1.329L0,.162a6.929,6.929,0,0,1,5.127.857Z" transform="translate(90.837 20.642)"/><path class="m" d="M2.768,3.4C2.464,1.411.025,1.2,0,1.2L.093,0c1.178.091,3.5.882,3.86,3.214Z" transform="translate(110.089 32.448)"/></g><g transform="translate(325.141 4.866)"><path class="j" d="M11.274,41.927V15.879a4.61,4.61,0,0,1,4.6-4.6H42.628a4.61,4.61,0,0,1,4.6,4.6V41.927H58.507V15.879A15.9,15.9,0,0,0,42.628,0H15.879A15.9,15.9,0,0,0,0,15.879V41.927Z" transform="translate(9.385 0.103)"/><g transform="translate(0 36.194)"><rect class="n" width="76.979" height="54.932" rx="14.827" transform="translate(0.149 0.147)"/><rect class="j" width="8.322" height="32.382" rx="4.161" transform="translate(34.478 8.185)"/><circle class="j" cx="8.601" cy="8.601" r="8.601" transform="translate(30.037 8.185)"/></g></g></g></svg>