<svg xmlns="http://www.w3.org/2000/svg" width="420.406" height="241.388" viewBox="0 0 420.406 241.388"><defs><style>.a{fill:#373b46;}.b{fill:#50d3dc;}</style></defs><g transform="translate(-304 -567.217)"><g transform="translate(304 567.217)"><path class="a" d="M1961.95,1541.537c-3.467-3.468-7.939-9.946-12.5-19.256l-50.559-94.912c51.29-7.848,63.335-30.754,63.335-56.4,0-32.67-26.191-60.14-106.957-60.14H1749.13v3.559c17.43,0,26.466,7.21,27.195,21.629v176.406c.183,19.9,13.051,29.935,24.458,34.953a60.889,60.889,0,0,0,25.1,4.837l31.943-.182v-3.559c-18.07,0-27.2-8.306-27.2-24.823v-93.542h12.593s20.99,48,40.248,83.778c12.686,23.544,36.321,38.148,62.148,38.148h37.418v-3.559C1973.45,1548.656,1966.513,1546.191,1961.95,1541.537ZM1858.1,1426.731h-27.561V1314.48H1858.1c27.469,0,53.935,17.8,53.935,55.031C1912.031,1414.777,1887.938,1426.731,1858.1,1426.731Z" transform="translate(-1749.13 -1310.83)"/></g><g transform="translate(559.912 567.217)"><path class="a" d="M1278.007,1314.308q-28.464,0-40.2,36.693-7.422,23.2-7.375,80.4c0,33.1,2.338,59.718,7.016,79.683q8.769,37.368,39.482,37.414,32.782,0,60.616-24.823v4.588c-18.527,15.829-38.673,23.743-60.616,23.743q-44.519,0-72.31-34.985-27.79-34.94-27.79-85.71,0-50.049,28.15-85.349c18.706-23.562,42.99-35.345,72.668-35.345,10.522,0,19.606,1.529,27.25,4.5,21.944,8.543,31.838,5.037,33.1-2.789h3.328l-.449,53.871h-3.328a43.184,43.184,0,0,0-2.518-13.31c-5.037-15.289-14.031-26.082-26.981-32.556C1299.682,1316.467,1289.609,1314.308,1278.007,1314.308Z" transform="translate(-1176.83 -1310.62)"/><circle class="b" cx="38" cy="38" r="38" transform="translate(88.493 82.694)"/></g></g></svg>