<svg xmlns="http://www.w3.org/2000/svg" width="62" height="44" viewBox="0 0 62 44"><defs><style>.a{fill:#fff;}</style></defs><path class="a" d="M20.373,43.6a2.779,2.779,0,0,1-1.029-1.108,3.785,3.785,0,0,1,0-3.275,2.784,2.784,0,0,1,1.029-1.108,3.139,3.139,0,0,1,3.065,0,2.759,2.759,0,0,1,1.029,1.108,3.826,3.826,0,0,1,0,3.275A2.754,2.754,0,0,1,23.439,43.6a3.139,3.139,0,0,1-3.065,0Zm.2-4.318a2.716,2.716,0,0,0,0,3.145,1.845,1.845,0,0,0,2.673,0,2.732,2.732,0,0,0,0-3.145,1.844,1.844,0,0,0-2.673,0ZM12.539,43.6a2.6,2.6,0,0,1-.978-1.1,4.094,4.094,0,0,1,0-3.281,2.624,2.624,0,0,1,.978-1.112,2.8,2.8,0,0,1,1.523-.4,2.66,2.66,0,0,1,1.727.544,2.392,2.392,0,0,1,.841,1.525H15.45A1.317,1.317,0,0,0,14.986,39a1.465,1.465,0,0,0-.941-.283,1.54,1.54,0,0,0-1.271.573,2.907,2.907,0,0,0,0,3.141A1.544,1.544,0,0,0,14.045,43a1.538,1.538,0,0,0,.941-.265A1.229,1.229,0,0,0,15.45,42h1.179a2.3,2.3,0,0,1-.841,1.468,2.706,2.706,0,0,1-1.727.53A2.833,2.833,0,0,1,12.539,43.6Zm29.47.292,2.141-6.082h1.205l2.14,6.081H46.357l-.468-1.409H43.606L43.129,43.9H42.008Zm1.89-2.276h1.7l-.853-2.528ZM1.12,43.9H0l2.142-6.082h1.2L5.487,43.9H4.351l-.469-1.409H1.6L1.121,43.9h0Zm.77-2.277h1.7l-.853-2.528ZM37.414,43.9H36.346V37.814h2.166a2.484,2.484,0,0,1,1.162.243,1.608,1.608,0,0,1,.687.67,2.108,2.108,0,0,1,.009,1.881,1.652,1.652,0,0,1-.678.677,2.421,2.421,0,0,1-1.18.257h-1.1V43.9h0Zm0-3.258h1.03a1.093,1.093,0,0,0,.807-.257,1.128,1.128,0,0,0,0-1.408,1.09,1.09,0,0,0-.807-.257h-1.03ZM58.972,43.9V41.732l-1.966-3.918h1.213l1.3,2.806L60.8,37.814H62l-1.958,3.918V43.9Zm-5.312,0-2.752-4.274V43.9h-1.07V37.814h1.07L53.66,42.1V37.814h1.07V43.9Zm-21.112,0V39.7l-1.631,3.327h-.845L28.44,39.7v4.2H27.37V37.814h1.271l1.867,3.857,1.84-3.857h1.271V43.9Zm8.546-12.445H10.81V0L22.421,12.059V0L52.7,31.451Z"/></svg>