<svg xmlns="http://www.w3.org/2000/svg" width="86" height="28" viewBox="0 0 86 28"><defs><style>.a{fill:#fff;}</style></defs><path class="a" d="M49.41,28H33.838L26.051,14,33.838,0H49.411L57.2,14,49.411,28h0ZM34.548,14l3.539,6.361h7.075L48.7,14l-3.54-6.362H38.087Zm40.9,5.751a2.514,2.514,0,0,1-.859-.54,2.486,2.486,0,0,1-.632-.869,3.055,3.055,0,0,1-.237-1.261V10.92a3.09,3.09,0,0,1,.237-1.246,2.632,2.632,0,0,1,.632-.9,2.662,2.662,0,0,1,.859-.525,2.725,2.725,0,0,1,1.943,0,2.843,2.843,0,0,1,.875.525,2.738,2.738,0,0,1,.616.9,3.075,3.075,0,0,1,.238,1.246v.59H77.506v-.59a1.135,1.135,0,0,0-.323-.894,1.168,1.168,0,0,0-1.532,0,1.135,1.135,0,0,0-.324.894v6.161a1.133,1.133,0,0,0,.324.893,1.165,1.165,0,0,0,1.532,0,1.133,1.133,0,0,0,.323-.893v-2.2H76.228V13.41h2.889v3.671a3.04,3.04,0,0,1-.238,1.261,2.58,2.58,0,0,1-.616.869,2.676,2.676,0,0,1-.875.54,2.7,2.7,0,0,1-1.943,0Zm6.883,0a2.761,2.761,0,0,1-1.491-1.408A3.049,3.049,0,0,1,80.6,17.08V10.919a3.068,3.068,0,0,1,.238-1.245,2.624,2.624,0,0,1,.632-.9,2.659,2.659,0,0,1,.859-.524,2.71,2.71,0,0,1,1.942,0,2.866,2.866,0,0,1,.876.524,2.769,2.769,0,0,1,.616.9A3.083,3.083,0,0,1,86,10.919V17.08a3.063,3.063,0,0,1-.238,1.263,2.6,2.6,0,0,1-.616.868,2.689,2.689,0,0,1-.876.54,2.7,2.7,0,0,1-1.942,0Zm.206-9.724a1.136,1.136,0,0,0-.324.893V17.08a1.134,1.134,0,0,0,.324.893,1.163,1.163,0,0,0,1.53,0,1.137,1.137,0,0,0,.324-.893V10.919a1.14,1.14,0,0,0-.324-.893,1.166,1.166,0,0,0-1.53,0ZM68.564,19.75a2.761,2.761,0,0,1-1.491-1.408,3.063,3.063,0,0,1-.238-1.263V10.919a3.083,3.083,0,0,1,.238-1.245,2.624,2.624,0,0,1,.632-.9,2.659,2.659,0,0,1,.86-.524,2.71,2.71,0,0,1,1.942,0,2.855,2.855,0,0,1,.876.524,2.742,2.742,0,0,1,.616.9,3.083,3.083,0,0,1,.238,1.245V17.08A3.063,3.063,0,0,1,72,18.343a2.6,2.6,0,0,1-.616.868,2.68,2.68,0,0,1-.876.54,2.7,2.7,0,0,1-1.942,0Zm.206-9.724a1.136,1.136,0,0,0-.324.893V17.08a1.134,1.134,0,0,0,.324.893,1.163,1.163,0,0,0,1.53,0,1.134,1.134,0,0,0,.324-.893V10.919a1.136,1.136,0,0,0-.324-.893,1.166,1.166,0,0,0-1.53,0Zm-7.838,9.808V8.168h1.61v10h3.189v1.671Zm-41.374,0V9.74H17.695V8.168h5.337V9.74H21.169V19.834Zm-3.646,0-1.4-3.933-1.389,3.933H11.413l2.274-6.113-2.1-5.554h1.7l1.215,3.457,1.231-3.457h1.705L15.3,13.721l2.321,6.113Zm-9.708,0V8.167H11V9.74H7.815v3.424h2.777v1.573H7.815v3.425H11v1.671Zm-4.342,0V9.74H0V8.168H5.336V9.74H3.473V19.833Z"/></svg>